#!OML:ASF I:\Actors\actors\Patient Classification 2\Patient 1\Session 1\actor1.ASF
:FULLY-SPECIFIED
:DEGREES
936
root -0.980827 18.3141 5.735 4.86382 -1.50746 -3.854
lowerback 14.5345 2.04779 5.7937
upperback -0.616503 3.77963 0.674263
thorax -8.509 1.57987 -3.35422
lowerneck -2.94696 3.12267 6.55274
upperneck -19.8113 3.27483 -7.60222
head -5.19694 1.63087 -3.61106
rclavicle -3.22528e-014 -8.34896e-015
rhumerus 22.2297 24.4044 -67.434
rradius 133.249
rwrist -43.587
rhand 2.25297 -41.687
rfingers 7.12502
rthumb 27.7465 -69.6595
lclavicle -3.22528e-014 -8.34896e-015
lhumerus -45.3436 -28.2952 106.132
lradius 91.8249
lwrist 11.2071
lhand 1.6349 -19.8231
lfingers 7.12502
lthumb 27.1554 8.24315
rfemur 0 0 0
rtibia 0
rfoot 0 0
rtoes 0
lfemur 10.9162 -6.41472 -12.5535
ltibia -16.0166
lfoot -3.42919 20.1882
ltoes -9.5163
937
root -0.980817 18.3128 5.7385 4.84667 -1.48403 -3.87069
lowerback 14.5582 2.04675 5.73171
upperback -0.650602 3.77537 0.724178
thorax -8.56748 1.57889 -3.26746
lowerneck -2.93357 3.2036 6.64744
upperneck -19.7825 3.34826 -7.86688
head -5.17484 1.67667 -3.71211
rclavicle 1.13307e-014 -1.31198e-014
rhumerus 23.0307 24.7922 -65.9081
rradius 133.57
rwrist -43.7681
rhand 0.983255 -41.69
rfingers 7.12502
rthumb 26.5318 -69.852
lclavicle 1.13307e-014 -1.31198e-014
lhumerus -45.3375 -28.2129 106.196
lradius 91.795
lwrist 11.279
lhand 1.67939 -19.7823
lfingers 7.12502
lthumb 27.1979 8.27729
rfemur 0 0 0
rtibia 0
rfoot 0 0
rtoes 0
lfemur 10.9547 -6.40539 -12.5342
ltibia -16.0388
lfoot -3.38579 20.1468
ltoes -9.42534
938
root -0.980467 18.3111 5.74055 4.81696 -1.48409 -3.86493
lowerback 14.6056 2.04477 5.66937
upperback -0.660329 3.76811 0.750748
thorax -8.61145 1.57691 -3.20545
lowerneck -2.97645 3.28195 6.76982
upperneck -19.7297 3.42194 -8.09699
head -5.13617 1.71762 -3.80502
rclavicle 1.82882e-014 -3.57812e-015
rhumerus 23.0053 25.311 -65.4172
rradius 133.92
rwrist -43.6126
rhand 0.387422 -41.7273
rfingers 7.12502
rthumb 25.9614 -69.9742
lclavicle 1.82882e-014 -3.57812e-015
lhumerus -45.3285 -28.1619 106.222
lradius 91.7644
lwrist 11.3114
lhand 1.66663 -19.8817
lfingers 7.12502
lthumb 27.1857 8.17981
rfemur 0 0 0
rtibia 0
rfoot 0 0
rtoes 0
lfemur 10.999 -6.4209 -12.5515
ltibia -16.0444
lfoot -3.30929 20.1375
ltoes -9.72394
939
root -0.980154 18.3097 5.74133 4.78784 -1.51479 -3.85193
lowerback 14.6644 2.06117 5.61569
upperback -0.658582 3.78546 0.761257
thorax -8.64541 1.58658 -3.17083
lowerneck -2.98493 3.33105 6.88327
upperneck -19.7642 3.46197 -8.2804
head -5.13436 1.74041 -3.88406
rclavicle -2.07233e-014 1.98785e-015
rhumerus 22.4669 26.0293 -65.5116
rradius 134.365
rwrist -43.2949
rhand 0.0774674 -41.6398
rfingers 7.12502
rthumb 25.6646 -69.9299
lclavicle -2.07233e-014 1.98785e-015
lhumerus -45.3346 -28.1663 106.249
lradius 91.7371
lwrist 11.3056
lhand 1.62803 -19.9749
lfingers 7.12502
lthumb 27.1488 8.09233
rfemur 0 0 0
rtibia 0
rfoot 0 0
rtoes 0
lfemur 11.0327 -6.41025 -12.5803
ltibia -16.0281
lfoot -3.29988 20.1349
ltoes -9.95459
940
root -0.980238 18.3098 5.74165 4.77859 -1.57425 -3.84007
lowerback 14.7067 2.09137 5.52106
upperback -0.649755 3.81392 0.788717
thorax -8.66498 1.60458 -3.09626
lowerneck -3.00972 3.38188 6.97913
upperneck -19.8207 3.50187 -8.46567
head -5.13676 1.76419 -3.96108
rclavicle 2.20154e-014 8.74653e-015
rhumerus 21.8737 26.9404 -65.6096
rradius 134.881
rwrist -42.7738
rhand -0.62214 -41.2982
rfingers 7.12502
rthumb 24.9943 -69.6832
lclavicle 2.20154e-014 8.74653e-015
lhumerus -45.3219 -28.1591 106.272
lradius 91.7134
lwrist 11.2857
lhand 1.67584 -19.9502
lfingers 7.12502
lthumb 27.1945 8.10993
rfemur 0 0 0
rtibia 0
rfoot 0 0
rtoes 0
lfemur 11.044 -6.4141 -12.5994
ltibia -15.9928
lfoot -3.39466 20.1691
ltoes -9.66305
941
root -0.980201 18.3104 5.74178 4.77787 -1.64862 -3.82022
lowerback 14.7546 2.13031 5.40336
upperback -0.641025 3.85085 0.822759
thorax -8.68918 1.6277 -3.00382
lowerneck -3.08879 3.4384 7.04786
upperneck -19.824 3.54718 -8.65282
head -5.11339 1.79169 -4.03151
rclavicle -7.33018e-014 2.5842e-015
rhumerus 21.3083 27.8172 -65.6955
rradius 135.502
rwrist -42.3111
rhand -1.32646 -41.3453
rfingers 7.12502
rthumb 24.3193 -69.8226
lclavicle -7.33018e-014 2.5842e-015
lhumerus -45.319 -28.1742 106.308
lradius 91.7051
lwrist 11.2591
lhand 1.69785 -19.9209
lfingers 7.12502
lthumb 27.2156 8.13594
rfemur 0 0 0
rtibia 0
rfoot 0 0
rtoes 0
lfemur 11.0465 -6.40152 -12.6273
ltibia -15.953
lfoot -3.45936 20.2003
ltoes -9.53317
942
root -0.979175 18.3112 5.74296 4.7916 -1.73791 -3.80582
lowerback 14.7692 2.16756 5.32605
upperback -0.650908 3.89081 0.852059
thorax -8.7119 1.65016 -2.93851
lowerneck -3.02387 3.48466 7.10747
upperneck -19.9018 3.58522 -8.83254
head -5.13801 1.81834 -4.10325
rclavicle 8.44835e-016 8.94531e-015
rhumerus 20.7382 28.6491 -65.8523
rradius 136.181
rwrist -42.097
rhand -1.63466 -41.8215
rfingers 7.12502
rthumb 24.0238 -70.3381
lclavicle 8.44835e-016 8.94531e-015
lhumerus -45.4039 -28.1943 106.376
lradius 91.7188
lwrist 11.2276
lhand 1.61296 -19.9236
lfingers 7.12502
lthumb 27.1344 8.14589
rfemur 0 0 0
rtibia 0
rfoot 0 0
rtoes 0
lfemur 11.0383 -6.34152 -12.6523
ltibia -15.9152
lfoot -3.51473 20.215
ltoes -9.55848
943
root -0.977122 18.3122 5.74554 4.83229 -1.81637 -3.7857
lowerback 14.735 2.18475 5.27484
upperback -0.690811 3.90668 0.87735
thorax -8.7399 1.65922 -2.88537
lowerneck -2.79427 3.5272 7.13695
upperneck -20.0578 3.63223 -8.96015
head -5.21598 1.85133 -4.15968
rclavicle 2.53947e-014 7.7526e-015
rhumerus 20.1498 29.5407 -66.0777
rradius 136.813
rwrist -41.9513
rhand -1.93491 -42.1963
rfingers 7.12502
rthumb 23.7358 -70.7505
lclavicle 2.53947e-014 7.7526e-015
lhumerus -45.5892 -28.1395 106.463
lradius 91.7637
lwrist 11.2099
lhand 1.55025 -19.9461
lfingers 7.12502
lthumb 27.0744 8.13275
rfemur 0 0 0
rtibia 0
rfoot 0 0
rtoes 0
lfemur 11.0102 -6.2815 -12.6833
ltibia -15.8915
lfoot -3.58617 20.2277
ltoes -9.50467
